<?xml version="1.0" standalone="no"?>
<!DOCTYPE svg PUBLIC "-//W3C//DTD SVG 20010904//EN"
 "http://www.w3.org/TR/2001/REC-SVG-20010904/DTD/svg10.dtd">
<svg version="1.0" xmlns="http://www.w3.org/2000/svg"
 width="111.000000pt" height="111.000000pt" viewBox="0 0 111.000000 111.000000"
 preserveAspectRatio="xMidYMid meet">
<metadata>
Created by potrace 1.11, written by Peter Selinger 2001-2013
</metadata>
<g transform="translate(0.000000,111.000000) scale(0.100000,-0.100000)"
fill="#000000" stroke="none">
<path d="M33 1082 c-12 -27 -8 -181 6 -242 11 -45 11 -61 1 -85 -23 -52 -25
-68 -25 -180 0 -190 18 -310 52 -345 66 -68 95 -114 89 -142 -3 -15 -9 -41
-12 -58 l-6 -30 486 0 486 0 0 329 c0 192 -4 332 -9 336 -5 3 -8 40 -5 83 2
42 7 121 10 175 4 60 2 97 -4 97 -5 0 -36 -12 -68 -26 -84 -38 -164 -42 -255
-14 -55 16 -104 22 -203 25 -72 2 -135 4 -141 6 -5 1 -17 -1 -25 -4 -34 -13
-88 -24 -136 -26 -47 -2 -56 2 -125 52 -92 65 -106 72 -116 49z"/>
</g>
</svg>
